<?xml version="1.0" standalone="no"?>
<!DOCTYPE svg PUBLIC "-//W3C//DTD SVG 20010904//EN" "http://www.w3.org/TR/2001/REC-SVG-20010904/DTD/svg10.dtd">
<!-- Created using Krita: https://krita.org -->
<svg xmlns="http://www.w3.org/2000/svg" 
    xmlns:xlink="http://www.w3.org/1999/xlink"
    xmlns:krita="http://krita.org/namespaces/svg/krita"
    xmlns:sodipodi="http://sodipodi.sourceforge.net/DTD/sodipodi-0.dtd"
    width="232.8pt"
    height="232.8pt"
    viewBox="0 0 232.8 232.8">
<defs/>
<path id="shape0" transform="translate(173.52, 266.16)" fill="none" stroke="#000000" stroke-width="1" stroke-linecap="square" stroke-linejoin="miter" stroke-miterlimit="2" d="M0 0L232.8 0L232.8 232.8L0 232.8L0 0" sodipodi:nodetypes="ccccc"/><path id="shape1" transform="translate(190.40822270603, 296.43327635824)" fill="#000000" fill-rule="evenodd" stroke="none" stroke-width="9.6" stroke-linecap="square" stroke-linejoin="bevel" d="M0.0494849 24.8446C-0.0329899 20.4322 -0.0123712 16.9683 0.111341 14.4528C0.296909 10.6796 4.07013 -0.763798 15.3898 0.0403318C22.9363 0.576418 32.0497 4.49397 42.7302 11.793C55.3561 22.646 63.5623 30.646 67.349 35.7932C73.0289 43.5139 95.5988 80.0241 97.2455 83.8486C98.3434 86.3983 99.0988 86.3983 99.5118 83.8486C105.176 71.4451 110.042 61.9596 114.111 55.3921C117.04 50.6654 122.958 42.8395 129.328 35.3365C136.234 27.202 143.671 19.4469 148.402 16.432C157.498 10.6363 175.932 -5.86536 191.146 2.9892C201.288 8.89224 201.637 32.8532 192.192 74.8721C189.938 82.2777 187.765 87.3758 185.672 90.1664C182.533 94.3521 172.793 103.851 158.706 105.541C149.315 106.668 142.177 106.722 137.294 105.702C145.719 107.58 150.576 108.868 151.864 109.566C153.796 110.612 160.804 113.176 164.913 116.307C169.021 119.437 172.873 122.606 174.322 127.919C175.771 133.232 175.449 139.752 173.517 143.535C171.585 147.319 167.802 154.08 162.65 158.668C157.498 163.257 149.69 170.179 142.204 172.031C134.718 173.882 130.613 173.077 125.22 171.226C119.826 169.374 108.023 154.19 104.8 145.419C101.577 136.647 98.8731 131.656 98.5754 130.012C98.3769 128.916 98.3232 128.916 98.4144 130.012C95.2482 137.632 93.3163 142.462 92.6187 144.501C91.5722 147.56 86.018 157.783 83.4421 160.842C80.8662 163.901 74.3461 170.26 70.4018 171.709C66.4575 173.158 61.3862 173.56 57.8444 172.916C54.3026 172.272 46.232 168.045 44.4611 166.354C42.6902 164.664 36.191 161.083 34.0981 158.427C32.0052 155.771 26.2988 150.839 25.8963 149.149C25.4938 147.459 21.6003 143.383 21.6003 138.956C21.6003 134.528 20.0113 131.541 24.5191 123.894C27.5242 118.796 34.3396 113.966 44.965 109.405L60.6618 105.622C51.6462 106.534 46.0383 106.749 43.8381 106.266C40.5378 105.541 32.0857 105.541 26.29 102.16C20.4943 98.7794 16.3085 96.5255 12.9276 92.2593C9.5468 87.993 5.522 79.8629 5.11952 76.2405C4.71704 72.6182 4.31456 73.5842 4.23407 71.6523C4.15357 69.7204 0.13119 34.1427 0.0494849 24.8446Z" sodipodi:nodetypes="czzczzczczzczzczzzzzzzzzczzzzzzzzzcczzzzcc"/>
</svg>
